STARTFONT 2.3
FONT -FontForge-Fredoka One-Book-R-Normal--8-80-72-72-P-46-ISO10646-1
SIZE 8 72 72  4
FONTBOUNDINGBOX 11 10 -1 -2
COMMENT "Generated by fontforge, http://fontforge.sourceforge.net"
COMMENT "Copyright (c) 2011 Milena B Brandao (milenabbrandao@gmail.com), with Reserved Font Name "Fredoka""
STARTPROPERTIES 40
FOUNDRY "FontForge"
FAMILY_NAME "Fredoka One"
WEIGHT_NAME "Book"
SLANT "R"
SETWIDTH_NAME "Normal"
ADD_STYLE_NAME ""
PIXEL_SIZE 8
POINT_SIZE 80
RESOLUTION_X 72
RESOLUTION_Y 72
SPACING "P"
AVERAGE_WIDTH 46
CHARSET_REGISTRY "ISO10646"
CHARSET_ENCODING "1"
FONTNAME_REGISTRY ""
CHARSET_COLLECTIONS "ISO10646-1"
BITS_PER_PIXEL 4
FONT_NAME "FredokaOne-Regular"
FACE_NAME "Fredoka One"
COPYRIGHT "Copyright (c) 2011 Milena B Brandao (milenabbrandao@gmail.com), with Reserved Font Name "Fredoka""
FONT_VERSION "1.001"
FONT_ASCENT 6
FONT_DESCENT 2
UNDERLINE_POSITION -1
UNDERLINE_THICKNESS 1
X_HEIGHT 4
CAP_HEIGHT 5
RAW_ASCENT 800
RAW_DESCENT 200
NORM_SPACE 2
RELATIVE_WEIGHT 40
RELATIVE_SETWIDTH 50
SUPERSCRIPT_X 0
SUPERSCRIPT_Y 3
SUPERSCRIPT_SIZE 5
SUBSCRIPT_X 0
SUBSCRIPT_Y 1
SUBSCRIPT_SIZE 5
AVG_LOWERCASE_WIDTH 47
AVG_UPPERCASE_WIDTH 54
ENDPROPERTIES
CHARS 235
STARTCHAR space
ENCODING 32
SWIDTH 253 0
DWIDTH 2 0
BBX 1 1 0 0
BITMAP
00
ENDCHAR
STARTCHAR exclam
ENCODING 33
SWIDTH 267 0
DWIDTH 2 0
BBX 2 6 0 0
BITMAP
89
AC
AC
8A
44
9B
ENDCHAR
STARTCHAR quotedbl
ENCODING 34
SWIDTH 429 0
DWIDTH 3 0
BBX 4 3 0 3
BITMAP
95C2
B6E3
7390
ENDCHAR
STARTCHAR numbersign
ENCODING 35
SWIDTH 749 0
DWIDTH 6 0
BBX 6 6 0 0
BITMAP
03A0B2
29D5F5
6DDCE8
4CA9D3
8FBDD4
1E1A50
ENDCHAR
STARTCHAR dollar
ENCODING 36
SWIDTH 475 0
DWIDTH 4 0
BBX 4 8 0 -1
BITMAP
0110
0960
7EE3
9B50
28E6
AAC7
2CA1
0530
ENDCHAR
STARTCHAR percent
ENCODING 37
SWIDTH 838 0
DWIDTH 7 0
BBX 7 8 0 -1
BITMAP
00001000
4D80A200
A5E38000
6EBB1000
0149CD20
00B5A950
0571DD20
01000000
ENDCHAR
STARTCHAR ampersand
ENCODING 38
SWIDTH 748 0
DWIDTH 6 0
BBX 6 7 0 0
BITMAP
002000
0CFD10
2F6F20
0FF700
7FF5C5
BBBFF4
5EFCDB
ENDCHAR
STARTCHAR quotesingle
ENCODING 39
SWIDTH 208 0
DWIDTH 2 0
BBX 2 3 0 3
BITMAP
95
B6
73
ENDCHAR
STARTCHAR parenleft
ENCODING 40
SWIDTH 384 0
DWIDTH 3 0
BBX 3 9 0 -2
BITMAP
0020
0BC0
5D00
9800
B700
B700
8900
3E30
06B0
ENDCHAR
STARTCHAR parenright
ENCODING 41
SWIDTH 384 0
DWIDTH 3 0
BBX 3 9 0 -2
BITMAP
2000
BC00
0C60
07A0
06C0
06B0
0890
3E40
A700
ENDCHAR
STARTCHAR asterisk
ENCODING 42
SWIDTH 503 0
DWIDTH 4 0
BBX 4 4 0 2
BITMAP
1881
CFFC
5FF5
3883
ENDCHAR
STARTCHAR plus
ENCODING 43
SWIDTH 527 0
DWIDTH 4 0
BBX 4 5 0 0
BITMAP
0010
07B0
9EEC
4BD6
0570
ENDCHAR
STARTCHAR comma
ENCODING 44
SWIDTH 238 0
DWIDTH 2 0
BBX 2 4 0 -2
BITMAP
54
BA
85
20
ENDCHAR
STARTCHAR hyphen
ENCODING 45
SWIDTH 433 0
DWIDTH 3 0
BBX 4 2 0 1
BITMAP
4651
ADD3
ENDCHAR
STARTCHAR period
ENCODING 46
SWIDTH 237 0
DWIDTH 2 0
BBX 2 2 0 0
BITMAP
54
B9
ENDCHAR
STARTCHAR slash
ENCODING 47
SWIDTH 526 0
DWIDTH 4 0
BBX 4 8 0 -1
BITMAP
0002
006F
00D9
05F2
0CA0
4F20
BA00
4200
ENDCHAR
STARTCHAR zero
ENCODING 48
SWIDTH 608 0
DWIDTH 5 0
BBX 5 7 0 -1
BITMAP
1AD900
7E8F50
BA0C80
BA0C90
8E6F60
2DFC10
001000
ENDCHAR
STARTCHAR one
ENCODING 49
SWIDTH 407 0
DWIDTH 3 0
BBX 3 6 0 0
BITMAP
06B0
8FE0
7CE0
07E0
07E0
06D0
ENDCHAR
STARTCHAR two
ENCODING 50
SWIDTH 609 0
DWIDTH 5 0
BBX 5 6 0 0
BITMAP
1BE800
9E8F50
A71F70
04DE20
6FE830
AFFFA0
ENDCHAR
STARTCHAR three
ENCODING 51
SWIDTH 608 0
DWIDTH 5 0
BBX 5 7 0 -1
BITMAP
1BEA10
7E7F70
03CF40
129F60
BC5E90
3DFD20
001000
ENDCHAR
STARTCHAR four
ENCODING 52
SWIDTH 592 0
DWIDTH 5 0
BBX 5 6 0 0
BITMAP
2C2C40
6F1F60
AC0F60
DFFF60
345F60
000E50
ENDCHAR
STARTCHAR five
ENCODING 53
SWIDTH 530 0
DWIDTH 4 0
BBX 4 7 0 -1
BITMAP
4DDB
8E86
AFC3
8BCD
77AE
8FF6
0100
ENDCHAR
STARTCHAR six
ENCODING 54
SWIDTH 560 0
DWIDTH 4 0
BBX 5 7 0 -1
BITMAP
03BC10
2FC800
9E7200
BFDE10
AC6F30
3EFA00
001000
ENDCHAR
STARTCHAR seven
ENCODING 55
SWIDTH 561 0
DWIDTH 4 0
BBX 5 6 0 0
BITMAP
ADDD40
68CF30
01DB00
08F200
0D9000
0E5000
ENDCHAR
STARTCHAR eight
ENCODING 56
SWIDTH 582 0
DWIDTH 5 0
BBX 5 7 0 -1
BITMAP
1BE800
8E8F30
6FDE10
9EAF40
BC5F60
3EFB10
001000
ENDCHAR
STARTCHAR nine
ENCODING 57
SWIDTH 560 0
DWIDTH 4 0
BBX 5 6 0 0
BITMAP
2CD700
BC8F20
9EBF40
18CF20
37EA00
8FA100
ENDCHAR
STARTCHAR colon
ENCODING 58
SWIDTH 238 0
DWIDTH 2 0
BBX 2 4 0 0
BITMAP
BA
44
44
B9
ENDCHAR
STARTCHAR semicolon
ENCODING 59
SWIDTH 237 0
DWIDTH 2 0
BBX 2 6 0 -2
BITMAP
BA
44
54
BA
85
20
ENDCHAR
STARTCHAR less
ENCODING 60
SWIDTH 627 0
DWIDTH 5 0
BBX 5 6 0 0
BITMAP
000240
018FA0
5DE600
BF8000
06ED40
0019A0
ENDCHAR
STARTCHAR equal
ENCODING 61
SWIDTH 478 0
DWIDTH 4 0
BBX 4 4 0 0
BITMAP
2441
BFF8
6884
7AA5
ENDCHAR
STARTCHAR greater
ENCODING 62
SWIDTH 627 0
DWIDTH 5 0
BBX 5 6 0 0
BITMAP
420000
AF8100
06ED50
008FB0
4DE700
A91000
ENDCHAR
STARTCHAR question
ENCODING 63
SWIDTH 512 0
DWIDTH 4 0
BBX 4 6 0 0
BITMAP
5EE4
B99C
03DA
07A0
0440
0AA0
ENDCHAR
STARTCHAR at
ENCODING 64
SWIDTH 908 0
DWIDTH 7 0
BBX 7 7 0 -1
BITMAP
00353000
0BDACC20
7A6BB7B0
B5E6E0F0
A5EDC1E0
6C34ED70
08EA3300
ENDCHAR
STARTCHAR A
ENCODING 65
SWIDTH 765 0
DWIDTH 6 0
BBX 6 6 0 0
BITMAP
007900
01EF20
08EEA0
1ECBF2
8FBBE9
B9007D
ENDCHAR
STARTCHAR B
ENCODING 66
SWIDTH 646 0
DWIDTH 5 0
BBX 5 6 0 0
BITMAP
8DDC30
AD8DB0
AB5DA0
AB4CC0
AD6BD0
9FFE50
ENDCHAR
STARTCHAR C
ENCODING 67
SWIDTH 679 0
DWIDTH 5 0
BBX 6 7 0 -1
BITMAP
05CD90
5FB8C1
BC0000
BB0000
6F86A1
07EFB1
000100
ENDCHAR
STARTCHAR D
ENCODING 68
SWIDTH 704 0
DWIDTH 6 0
BBX 6 6 0 0
BITMAP
8DD920
AD9DD1
AB02F5
AB01F5
AD7CE1
9FEB30
ENDCHAR
STARTCHAR E
ENCODING 69
SWIDTH 638 0
DWIDTH 5 0
BBX 5 6 0 0
BITMAP
8DDDB0
AD8860
AEA900
AECB00
AD6650
9FFFC0
ENDCHAR
STARTCHAR F
ENCODING 70
SWIDTH 637 0
DWIDTH 5 0
BBX 5 6 0 0
BITMAP
8DDDA0
AD8860
AEA900
AECB00
AB0000
9A0000
ENDCHAR
STARTCHAR G
ENCODING 71
SWIDTH 714 0
DWIDTH 6 0
BBX 6 6 0 0
BITMAP
06DE90
5FA8B1
BB1882
BB1AF6
5F96F6
07EFC2
ENDCHAR
STARTCHAR H
ENCODING 72
SWIDTH 699 0
DWIDTH 6 0
BBX 6 6 0 0
BITMAP
8801C3
AB02F4
AD89F4
AEABF4
AB02F4
9A01E3
ENDCHAR
STARTCHAR I
ENCODING 73
SWIDTH 257 0
DWIDTH 2 0
BBX 2 6 0 0
BITMAP
88
AB
AB
AB
AB
9A
ENDCHAR
STARTCHAR J
ENCODING 74
SWIDTH 549 0
DWIDTH 4 0
BBX 5 6 0 0
BITMAP
003C00
005F10
005F10
005F10
98BE00
7EE500
ENDCHAR
STARTCHAR K
ENCODING 75
SWIDTH 639 0
DWIDTH 5 0
BBX 5 6 0 0
BITMAP
880990
AB7F60
AEF600
AFF400
AB9F40
9A0BA0
ENDCHAR
STARTCHAR L
ENCODING 76
SWIDTH 587 0
DWIDTH 5 0
BBX 5 6 0 0
BITMAP
880000
AB0000
AB0000
AB0000
AC3310
9FFF60
ENDCHAR
STARTCHAR M
ENCODING 77
SWIDTH 870 0
DWIDTH 7 0
BBX 7 6 0 0
BITMAP
8A000B70
AF809FA0
AEF9FEA0
AB9F8CA0
AB160CA0
9A000B80
ENDCHAR
STARTCHAR N
ENCODING 78
SWIDTH 720 0
DWIDTH 6 0
BBX 6 6 0 0
BITMAP
8A00B5
AF80F7
AEF4F7
ABAEF7
AB1DF7
9A03E6
ENDCHAR
STARTCHAR O
ENCODING 79
SWIDTH 775 0
DWIDTH 6 0
BBX 6 6 0 0
BITMAP
06CD70
5FA9F8
AB009D
BB008E
6F86E9
08EFA1
ENDCHAR
STARTCHAR P
ENCODING 80
SWIDTH 632 0
DWIDTH 5 0
BBX 5 6 0 0
BITMAP
8DDA10
AD8EA0
AB1BC0
AFFF60
AD6300
9A0000
ENDCHAR
STARTCHAR Q
ENCODING 81
SWIDTH 830 0
DWIDTH 7 0
BBX 7 7 0 -1
BITMAP
06CD7000
5FA9F800
AB009D00
BB008E00
6F86ED10
08EFBE50
00010000
ENDCHAR
STARTCHAR R
ENCODING 82
SWIDTH 631 0
DWIDTH 5 0
BBX 5 6 0 0
BITMAP
8DDA10
AD8EA0
AB1BC0
AFFF70
AD6E90
9A08C0
ENDCHAR
STARTCHAR S
ENCODING 83
SWIDTH 583 0
DWIDTH 5 0
BBX 5 7 0 -1
BITMAP
2CEA00
9D7A00
8F9500
06BF40
9A5F60
4EFB10
001000
ENDCHAR
STARTCHAR T
ENCODING 84
SWIDTH 731 0
DWIDTH 6 0
BBX 6 6 0 0
BITMAP
BDDDD9
34CB42
00C900
00C900
00C900
00B800
ENDCHAR
STARTCHAR U
ENCODING 85
SWIDTH 726 0
DWIDTH 6 0
BBX 6 6 0 0
BITMAP
8900B5
AB00E7
AB00E7
AC00E7
6F79F3
09FE70
ENDCHAR
STARTCHAR V
ENCODING 86
SWIDTH 783 0
DWIDTH 6 0
BBX 7 6 0 0
BITMAP
97003C10
9E10BD00
2F62F500
09D9D000
02FF5000
008C0000
ENDCHAR
STARTCHAR W
ENCODING 87
SWIDTH 999 0
DWIDTH 8 0
BBX 8 6 0 0
BITMAP
97087079
AD0EE0D9
5F7FF7F4
0EFBCFE0
09F67F90
03D12D30
ENDCHAR
STARTCHAR X
ENCODING 88
SWIDTH 741 0
DWIDTH 6 0
BBX 6 6 0 0
BITMAP
A900A9
6F78F5
07FF60
06FF50
5F89F4
BA00BA
ENDCHAR
STARTCHAR Y
ENCODING 89
SWIDTH 686 0
DWIDTH 5 0
BBX 6 6 0 0
BITMAP
9802D3
7F3AE1
0CDF50
03FA00
00F700
00E600
ENDCHAR
STARTCHAR Z
ENCODING 90
SWIDTH 643 0
DWIDTH 5 0
BBX 5 6 0 0
BITMAP
9DDD90
58BF80
01DC00
0AE200
6FA640
AFFFD0
ENDCHAR
STARTCHAR bracketleft
ENCODING 91
SWIDTH 348 0
DWIDTH 3 0
BBX 3 9 0 -2
BITMAP
1310
AF90
A900
A900
A900
A900
A900
AB30
7C70
ENDCHAR
STARTCHAR backslash
ENCODING 92
SWIDTH 528 0
DWIDTH 4 0
BBX 4 8 0 -1
BITMAP
1100
C900
6F20
0D90
06E1
00E8
007E
0015
ENDCHAR
STARTCHAR bracketright
ENCODING 93
SWIDTH 348 0
DWIDTH 3 0
BBX 3 9 0 -2
BITMAP
2310
CF70
0C70
0C70
0C70
0C70
0C70
4D70
AC50
ENDCHAR
STARTCHAR asciicircum
ENCODING 94
SWIDTH 526 0
DWIDTH 4 0
BBX 4 3 0 2
BITMAP
0120
1DE3
896B
ENDCHAR
STARTCHAR underscore
ENCODING 95
SWIDTH 826 0
DWIDTH 7 0
BBX 7 2 0 -2
BITMAP
34444410
ACCCCC50
ENDCHAR
STARTCHAR grave
ENCODING 96
SWIDTH 482 0
DWIDTH 4 0
BBX 4 3 0 4
BITMAP
0100
2FC1
0150
ENDCHAR
STARTCHAR a
ENCODING 97
SWIDTH 596 0
DWIDTH 5 0
BBX 5 5 0 0
BITMAP
012210
4EFF70
BC5F70
AD9F70
2CDD60
ENDCHAR
STARTCHAR b
ENCODING 98
SWIDTH 592 0
DWIDTH 5 0
BBX 5 7 0 0
BITMAP
110000
AB0000
AB2000
AFFD10
AD5E70
AE8F60
9CEA00
ENDCHAR
STARTCHAR c
ENCODING 99
SWIDTH 517 0
DWIDTH 4 0
BBX 4 5 0 0
BITMAP
0130
4EFC
BC44
AE76
2CFA
ENDCHAR
STARTCHAR d
ENCODING 100
SWIDTH 598 0
DWIDTH 5 0
BBX 5 7 0 0
BITMAP
000210
000E70
012E70
3EFF70
AC5F70
9E8F70
2CDD60
ENDCHAR
STARTCHAR e
ENCODING 101
SWIDTH 573 0
DWIDTH 5 0
BBX 5 6 0 -1
BITMAP
014100
4EFE20
BE7F50
AE8900
3DFE10
001000
ENDCHAR
STARTCHAR f
ENCODING 102
SWIDTH 450 0
DWIDTH 4 0
BBX 4 7 0 0
BITMAP
0020
0CF3
3F81
CFF7
3F61
2F40
2F30
ENDCHAR
STARTCHAR g
ENCODING 103
SWIDTH 585 0
DWIDTH 5 0
BBX 5 7 0 -2
BITMAP
012200
4EFF50
BB5F50
ADAF50
1BBF50
3B9F30
2AB500
ENDCHAR
STARTCHAR h
ENCODING 104
SWIDTH 605 0
DWIDTH 5 0
BBX 5 7 0 0
BITMAP
110000
AB0000
AB2100
AEFD10
AD4F70
AB0D80
9A0C70
ENDCHAR
STARTCHAR i
ENCODING 105
SWIDTH 255 0
DWIDTH 2 0
BBX 2 7 0 0
BITMAP
11
AA
33
AB
AB
AB
9A
ENDCHAR
STARTCHAR j
ENCODING 106
SWIDTH 252 0
DWIDTH 2 0
BBX 3 9 -1 -2
BITMAP
0110
0AA0
0330
0AA0
0AB0
0AB0
0BA0
8E80
B810
ENDCHAR
STARTCHAR k
ENCODING 107
SWIDTH 536 0
DWIDTH 4 0
BBX 5 7 0 0
BITMAP
110000
AB0000
AB0000
ABAB00
AFF500
AEF800
9A6E10
ENDCHAR
STARTCHAR l
ENCODING 108
SWIDTH 327 0
DWIDTH 3 0
BBX 3 7 0 0
BITMAP
1100
AB00
AB00
AB00
AB00
AD20
6E70
ENDCHAR
STARTCHAR m
ENCODING 109
SWIDTH 851 0
DWIDTH 7 0
BBX 7 5 0 0
BITMAP
11201100
AEFCEE20
AD8F6F70
AB4F2E70
9A4E1D60
ENDCHAR
STARTCHAR n
ENCODING 110
SWIDTH 606 0
DWIDTH 5 0
BBX 5 5 0 0
BITMAP
122100
AEFD20
AD4E70
AB0D80
9A0C70
ENDCHAR
STARTCHAR o
ENCODING 111
SWIDTH 600 0
DWIDTH 5 0
BBX 5 5 0 0
BITMAP
014100
4EFD20
BC3E80
AD7E70
2CFB10
ENDCHAR
STARTCHAR p
ENCODING 112
SWIDTH 582 0
DWIDTH 5 0
BBX 5 7 0 -2
BITMAP
112000
AEFC10
AD4F60
AE9F40
ADD800
AA0000
880000
ENDCHAR
STARTCHAR q
ENCODING 113
SWIDTH 582 0
DWIDTH 5 0
BBX 5 7 0 -2
BITMAP
011200
4EFF50
BB6F50
ADAF50
2BCF50
000F50
000C30
ENDCHAR
STARTCHAR r
ENCODING 114
SWIDTH 457 0
DWIDTH 4 0
BBX 4 5 0 0
BITMAP
1231
AFF7
AD31
AB00
9A00
ENDCHAR
STARTCHAR s
ENCODING 115
SWIDTH 489 0
DWIDTH 4 0
BBX 4 5 0 0
BITMAP
0330
8EE6
8E92
49DA
8FF6
ENDCHAR
STARTCHAR t
ENCODING 116
SWIDTH 449 0
DWIDTH 4 0
BBX 4 6 0 0
BITMAP
1920
4F61
DFF6
4F61
2F81
0AF3
ENDCHAR
STARTCHAR u
ENCODING 117
SWIDTH 606 0
DWIDTH 5 0
BBX 5 5 0 0
BITMAP
110210
AB0D80
AB0D80
9E8F80
2CDD70
ENDCHAR
STARTCHAR v
ENCODING 118
SWIDTH 638 0
DWIDTH 5 0
BBX 5 5 0 0
BITMAP
210120
CA09D0
5F5F70
0BFD00
03E400
ENDCHAR
STARTCHAR w
ENCODING 119
SWIDTH 793 0
DWIDTH 6 0
BBX 7 5 0 0
BITMAP
21010300
C99E4F20
7EEFDC00
1FFCF600
09A5D100
ENDCHAR
STARTCHAR x
ENCODING 120
SWIDTH 567 0
DWIDTH 5 0
BBX 5 5 0 0
BITMAP
210200
BC6F40
3EF900
5FFC10
B93E40
ENDCHAR
STARTCHAR y
ENCODING 121
SWIDTH 604 0
DWIDTH 5 0
BBX 5 7 0 -2
BITMAP
210210
BB0C90
4F9F40
0AFC00
04F500
09D000
096000
ENDCHAR
STARTCHAR z
ENCODING 122
SWIDTH 586 0
DWIDTH 5 0
BBX 5 5 0 0
BITMAP
133300
9FFF40
16F900
4ED620
AFFF60
ENDCHAR
STARTCHAR braceleft
ENCODING 123
SWIDTH 381 0
DWIDTH 3 0
BBX 3 9 0 -2
BITMAP
0020
0BC0
0E30
0F30
AE00
5F10
0E30
0E60
06A0
ENDCHAR
STARTCHAR bar
ENCODING 124
SWIDTH 217 0
DWIDTH 2 0
BBX 2 9 0 -2
BITMAP
11
A6
A6
A6
A6
A6
A6
A6
85
ENDCHAR
STARTCHAR braceright
ENCODING 125
SWIDTH 381 0
DWIDTH 3 0
BBX 3 9 0 -2
BITMAP
2000
CC00
2F00
2F00
0DA0
1F60
2F00
5F00
A700
ENDCHAR
STARTCHAR asciitilde
ENCODING 126
SWIDTH 651 0
DWIDTH 5 0
BBX 5 2 0 1
BITMAP
4EDC60
478A10
ENDCHAR
STARTCHAR exclamdown
ENCODING 161
SWIDTH 268 0
DWIDTH 2 0
BBX 2 6 0 -2
BITMAP
9C
34
8A
AC
AC
79
ENDCHAR
STARTCHAR cent
ENCODING 162
SWIDTH 434 0
DWIDTH 3 0
BBX 4 7 0 -1
BITMAP
0210
0860
4EE2
B940
9EC2
0A90
0430
ENDCHAR
STARTCHAR sterling
ENCODING 163
SWIDTH 675 0
DWIDTH 5 0
BBX 6 6 0 0
BITMAP
04CC70
0EA8C0
6F8200
8EC400
1E9440
4FFFF3
ENDCHAR
STARTCHAR currency
ENCODING 164
SWIDTH 677 0
DWIDTH 5 0
BBX 6 7 0 0
BITMAP
100010
AA67E1
5FCEB0
9A03F0
8B05E0
5FFFB0
9734C2
ENDCHAR
STARTCHAR yen
ENCODING 165
SWIDTH 677 0
DWIDTH 5 0
BBX 6 6 0 0
BITMAP
9702C2
8F2AD1
0CDF40
1DFF60
17FB40
05E820
ENDCHAR
STARTCHAR brokenbar
ENCODING 166
SWIDTH 215 0
DWIDTH 2 0
BBX 2 9 0 -2
BITMAP
11
A6
A6
A6
42
84
A6
A6
74
ENDCHAR
STARTCHAR section
ENCODING 167
SWIDTH 560 0
DWIDTH 4 0
BBX 5 9 0 -2
BITMAP
011000
4EFB00
AC4500
7FD800
AC7F30
7FCF20
15AF30
AC9F20
2AB500
ENDCHAR
STARTCHAR dieresis
ENCODING 168
SWIDTH 489 0
DWIDTH 4 0
BBX 4 3 0 4
BITMAP
1112
AB7D
1212
ENDCHAR
STARTCHAR copyright
ENCODING 169
SWIDTH 711 0
DWIDTH 6 0
BBX 6 6 0 0
BITMAP
1AAA80
96CA74
A94147
A6CA55
3B99A0
013300
ENDCHAR
STARTCHAR ordfeminine
ENCODING 170
SWIDTH 445 0
DWIDTH 4 0
BBX 4 4 0 2
BITMAP
2A92
B8E4
8DF3
0431
ENDCHAR
STARTCHAR guillemotleft
ENCODING 171
SWIDTH 668 0
DWIDTH 5 0
BBX 6 5 0 0
BITMAP
001010
0AA5E1
9D5F60
7E6E80
0793C1
ENDCHAR
STARTCHAR logicalnot
ENCODING 172
SWIDTH 526 0
DWIDTH 4 0
BBX 5 3 0 1
BITMAP
688700
ADDF10
000E10
ENDCHAR
STARTCHAR registered
ENCODING 174
SWIDTH 711 0
DWIDTH 6 0
BBX 6 6 0 0
BITMAP
1AAA80
95DB74
A3CD47
A4BC65
3B89B0
013300
ENDCHAR
STARTCHAR degree
ENCODING 176
SWIDTH 407 0
DWIDTH 3 0
BBX 3 4 0 3
BITMAP
0100
7DB0
B6E0
3A60
ENDCHAR
STARTCHAR plusminus
ENCODING 177
SWIDTH 505 0
DWIDTH 4 0
BBX 4 5 0 0
BITMAP
0220
5BC5
8DE9
1661
9FFA
ENDCHAR
STARTCHAR twosuperior
ENCODING 178
SWIDTH 455 0
DWIDTH 4 0
BBX 4 5 0 1
BITMAP
5EC1
B8E5
3BD1
AFE6
2442
ENDCHAR
STARTCHAR threesuperior
ENCODING 179
SWIDTH 457 0
DWIDTH 4 0
BBX 4 5 0 1
BITMAP
4ED1
47E4
47E5
9DE4
0430
ENDCHAR
STARTCHAR acute
ENCODING 180
SWIDTH 605 0
DWIDTH 5 0
BBX 3 3 1 4
BITMAP
0110
8F70
4300
ENDCHAR
STARTCHAR mu
ENCODING 181
SWIDTH 601 0
DWIDTH 5 0
BBX 5 7 0 -2
BITMAP
110210
AB0D70
AB0E70
AE8F70
AEDC60
AB0000
770000
ENDCHAR
STARTCHAR paragraph
ENCODING 182
SWIDTH 614 0
DWIDTH 5 0
BBX 5 7 0 -2
BITMAP
7DDD50
BFCA70
6ECA70
05CA70
05CA70
05CA70
049750
ENDCHAR
STARTCHAR periodcentered
ENCODING 183
SWIDTH 237 0
DWIDTH 2 0
BBX 2 3 0 1
BITMAP
21
CA
22
ENDCHAR
STARTCHAR cedilla
ENCODING 184
SWIDTH 559 0
DWIDTH 4 0
BBX 2 3 1 -2
BITMAP
11
6C
35
ENDCHAR
STARTCHAR onesuperior
ENCODING 185
SWIDTH 321 0
DWIDTH 3 0
BBX 3 5 0 1
BITMAP
2C30
BF40
0E40
0E40
0300
ENDCHAR
STARTCHAR ordmasculine
ENCODING 186
SWIDTH 439 0
DWIDTH 4 0
BBX 4 4 0 2
BITMAP
2960
B8D3
9BE2
0530
ENDCHAR
STARTCHAR guillemotright
ENCODING 187
SWIDTH 669 0
DWIDTH 5 0
BBX 6 5 0 0
BITMAP
100100
B95D20
2D99D1
4E7BC0
A74B10
ENDCHAR
STARTCHAR onequarter
ENCODING 188
SWIDTH 786 0
DWIDTH 6 0
BBX 6 8 0 -1
BITMAP
010020
4E1380
3E1B10
0D5934
02B7AC
0579EC
0B002B
010000
ENDCHAR
STARTCHAR onehalf
ENCODING 189
SWIDTH 804 0
DWIDTH 6 0
BBX 6 8 0 -1
BITMAP
010020
4E1380
3E1B10
0D5851
02B9BB
0574B9
0B08FC
010000
ENDCHAR
STARTCHAR threequarters
ENCODING 190
SWIDTH 842 0
DWIDTH 7 0
BBX 7 8 0 -1
BITMAP
01001000
5DB0B100
17C57000
7BDB4310
0377EA40
00B3FE40
06601A30
01000000
ENDCHAR
STARTCHAR questiondown
ENCODING 191
SWIDTH 511 0
DWIDTH 4 0
BBX 4 7 0 -2
BITMAP
0120
09C0
0230
1CA0
AB22
ACBD
2AB3
ENDCHAR
STARTCHAR Agrave
ENCODING 192
SWIDTH 765 0
DWIDTH 6 0
BBX 6 8 0 0
BITMAP
029400
02AC00
007900
01EF20
08EEA0
1ECBF2
8FBBE9
B9007D
ENDCHAR
STARTCHAR Aacute
ENCODING 193
SWIDTH 765 0
DWIDTH 6 0
BBX 6 8 0 0
BITMAP
004A40
009920
007900
01EF20
08EEA0
1ECBF2
8FBBE9
B9007D
ENDCHAR
STARTCHAR Acircumflex
ENCODING 194
SWIDTH 765 0
DWIDTH 6 0
BBX 6 8 0 0
BITMAP
039A40
049850
007900
01EF20
08EEA0
1ECBF2
8FBBE9
B9007D
ENDCHAR
STARTCHAR Atilde
ENCODING 195
SWIDTH 765 0
DWIDTH 6 0
BBX 6 8 0 0
BITMAP
03B860
046930
007900
01EF20
08EEA0
1ECBF2
8FBBE9
B9007D
ENDCHAR
STARTCHAR Adieresis
ENCODING 196
SWIDTH 765 0
DWIDTH 6 0
BBX 6 8 0 0
BITMAP
077590
066470
007900
01EF20
08EEA0
1ECBF2
8FBBE9
B9007D
ENDCHAR
STARTCHAR Aring
ENCODING 197
SWIDTH 765 0
DWIDTH 6 0
BBX 6 8 0 0
BITMAP
002300
009910
00AC00
01EF30
08EEA0
1ECBF2
7FBBE9
B9007D
ENDCHAR
STARTCHAR AE
ENCODING 198
SWIDTH 1148 0
DWIDTH 9 0
BBX 9 6 0 0
BITMAP
0001BDDDC0
000BFE8870
00AFCEA900
08FABECB10
7FCCEE6650
D8006FFFD0
ENDCHAR
STARTCHAR Ccedilla
ENCODING 199
SWIDTH 679 0
DWIDTH 5 0
BBX 6 8 0 -2
BITMAP
05CD91
5FA8C1
BB0000
BB0000
6F86A1
07EFB1
005C00
003500
ENDCHAR
STARTCHAR Egrave
ENCODING 200
SWIDTH 638 0
DWIDTH 5 0
BBX 5 8 0 0
BITMAP
048300
03AA00
8DDDB0
AD8860
AEA900
AECB00
AD6650
9FFFC0
ENDCHAR
STARTCHAR Eacute
ENCODING 201
SWIDTH 638 0
DWIDTH 5 0
BBX 5 8 0 0
BITMAP
017900
03B600
8DDDB0
AD8860
AEA900
AECB00
AD6650
9FFFC0
ENDCHAR
STARTCHAR Ecircumflex
ENCODING 202
SWIDTH 638 0
DWIDTH 5 0
BBX 5 8 0 0
BITMAP
07B810
097A10
8DDDB0
AD8860
AEA900
AECB00
AD6650
9FFFC0
ENDCHAR
STARTCHAR Edieresis
ENCODING 203
SWIDTH 638 0
DWIDTH 5 0
BBX 5 8 0 0
BITMAP
1B2B40
192830
8DDDB0
AD8860
AEA900
AECB00
AD6650
9FFFC0
ENDCHAR
STARTCHAR Igrave
ENCODING 204
SWIDTH 267 0
DWIDTH 2 0
BBX 3 8 -1 0
BITMAP
2840
2AC0
0790
0AC0
0AC0
0AC0
0AC0
08B0
ENDCHAR
STARTCHAR Iacute
ENCODING 205
SWIDTH 269 0
DWIDTH 2 0
BBX 3 8 0 0
BITMAP
4950
9920
7900
9C00
9C00
9C00
9C00
8B00
ENDCHAR
STARTCHAR Icircumflex
ENCODING 206
SWIDTH 270 0
DWIDTH 2 0
BBX 4 8 -1 0
BITMAP
39A4
4986
0790
09C0
09C0
09C0
09C0
08B0
ENDCHAR
STARTCHAR Idieresis
ENCODING 207
SWIDTH 268 0
DWIDTH 2 0
BBX 4 8 -1 0
BITMAP
7859
6648
0790
09C0
09C0
09C0
09C0
08B0
ENDCHAR
STARTCHAR Eth
ENCODING 208
SWIDTH 775 0
DWIDTH 6 0
BBX 6 6 0 0
BITMAP
1DDC60
2FAAF7
6F909D
7FA08E
2F98F8
1EFE80
ENDCHAR
STARTCHAR Ntilde
ENCODING 209
SWIDTH 720 0
DWIDTH 6 0
BBX 6 8 0 0
BITMAP
04B940
056910
8A00B5
AF80F7
AEF4F7
ABAEF7
AB1DF7
9A03E6
ENDCHAR
STARTCHAR Ograve
ENCODING 210
SWIDTH 775 0
DWIDTH 6 0
BBX 6 8 0 0
BITMAP
019400
019D10
06CD70
5FA9F8
AB009D
BB008E
6F86E9
08EFA1
ENDCHAR
STARTCHAR Oacute
ENCODING 211
SWIDTH 775 0
DWIDTH 6 0
BBX 6 8 0 0
BITMAP
005A40
00A920
06CD70
5FA9F8
AB009D
BB008E
6F86E9
08EFA1
ENDCHAR
STARTCHAR Ocircumflex
ENCODING 212
SWIDTH 775 0
DWIDTH 6 0
BBX 6 8 0 0
BITMAP
029A40
039860
06CD70
5FA9F8
AB009D
BB008E
6F86E9
08EFA1
ENDCHAR
STARTCHAR Otilde
ENCODING 213
SWIDTH 775 0
DWIDTH 6 0
BBX 6 8 0 0
BITMAP
01A880
027940
06CD70
5FA9F8
AB009D
BB008E
6F86E9
08EFA1
ENDCHAR
STARTCHAR Odieresis
ENCODING 214
SWIDTH 775 0
DWIDTH 6 0
BBX 6 8 0 0
BITMAP
087690
066470
06CD70
5FA9F8
AB009D
BB008E
6F86E9
08EFA1
ENDCHAR
STARTCHAR multiply
ENCODING 215
SWIDTH 521 0
DWIDTH 4 0
BBX 4 4 0 0
BITMAP
986B
3FF5
6FE9
7538
ENDCHAR
STARTCHAR Oslash
ENCODING 216
SWIDTH 775 0
DWIDTH 6 0
BBX 6 8 0 -1
BITMAP
000020
06CDF1
5FAEF8
AB4FBD
BBCA8E
6FF9E9
0CFFA1
033000
ENDCHAR
STARTCHAR Ugrave
ENCODING 217
SWIDTH 726 0
DWIDTH 6 0
BBX 6 8 0 0
BITMAP
067200
05B700
8900B5
AB00E7
AB00E7
AC00E7
6F79F3
09FE70
ENDCHAR
STARTCHAR Uacute
ENCODING 218
SWIDTH 726 0
DWIDTH 6 0
BBX 6 8 0 0
BITMAP
005A40
00A920
8900B5
AB00E7
AB00E7
AC00E7
6F79F3
09FE70
ENDCHAR
STARTCHAR Ucircumflex
ENCODING 219
SWIDTH 726 0
DWIDTH 6 0
BBX 6 8 0 0
BITMAP
03AA30
058850
8900B5
AB00E7
AB00E7
AC00E7
6F79F3
09FE70
ENDCHAR
STARTCHAR Udieresis
ENCODING 220
SWIDTH 726 0
DWIDTH 6 0
BBX 6 8 0 0
BITMAP
095870
074660
8900B5
AB00E7
AB00E7
AC00E7
6F79F3
09FE70
ENDCHAR
STARTCHAR Yacute
ENCODING 221
SWIDTH 686 0
DWIDTH 5 0
BBX 6 8 0 0
BITMAP
017A00
02B700
9802D3
7F3AE1
0CDF50
03FA00
00F700
00E600
ENDCHAR
STARTCHAR Thorn
ENCODING 222
SWIDTH 634 0
DWIDTH 5 0
BBX 5 6 0 0
BITMAP
891000
AFFD30
AC6DB0
AC3CB0
AFFE40
9B3100
ENDCHAR
STARTCHAR germandbls
ENCODING 223
SWIDTH 633 0
DWIDTH 5 0
BBX 5 7 0 -1
BITMAP
4DFC10
AD7F10
ABB900
AB6F60
AB4AC0
AACF80
220000
ENDCHAR
STARTCHAR agrave
ENCODING 224
SWIDTH 596 0
DWIDTH 5 0
BBX 5 7 0 0
BITMAP
010000
09E700
015510
4EFF70
BC5F70
AD9F70
2CDD60
ENDCHAR
STARTCHAR aacute
ENCODING 225
SWIDTH 596 0
DWIDTH 5 0
BBX 5 7 0 0
BITMAP
000100
06EA00
036210
4EFF70
BC5F70
AD9F70
2CDD60
ENDCHAR
STARTCHAR acircumflex
ENCODING 226
SWIDTH 596 0
DWIDTH 5 0
BBX 5 7 0 0
BITMAP
002000
0CFE20
043610
4EFF70
BC5F70
AD9F70
2CDD60
ENDCHAR
STARTCHAR atilde
ENCODING 227
SWIDTH 596 0
DWIDTH 5 0
BBX 5 7 0 0
BITMAP
001100
0CEE10
033410
4EFF70
BC5F70
AD9F70
2CDD60
ENDCHAR
STARTCHAR adieresis
ENCODING 228
SWIDTH 596 0
DWIDTH 5 0
BBX 5 7 0 0
BITMAP
020200
2F3F60
042510
4EFF70
BC5F70
AD9F70
2CDD60
ENDCHAR
STARTCHAR aring
ENCODING 229
SWIDTH 596 0
DWIDTH 5 0
BBX 5 6 0 0
BITMAP
018400
018410
4EFF70
BC5F70
AD9F70
2CDD60
ENDCHAR
STARTCHAR ae
ENCODING 230
SWIDTH 910 0
DWIDTH 7 0
BBX 8 6 0 -1
BITMAP
02302300
7FFDFFB0
386FC9F1
AB9FC860
8EE8EFA0
01000000
ENDCHAR
STARTCHAR ccedilla
ENCODING 231
SWIDTH 524 0
DWIDTH 4 0
BBX 4 7 0 -2
BITMAP
0141
4EFD
BD44
AE77
2CFA
03D2
0260
ENDCHAR
STARTCHAR egrave
ENCODING 232
SWIDTH 573 0
DWIDTH 5 0
BBX 5 8 0 -1
BITMAP
010000
0CE500
028300
4EFE20
BE7F50
AE8900
3DFE10
001000
ENDCHAR
STARTCHAR eacute
ENCODING 233
SWIDTH 573 0
DWIDTH 5 0
BBX 5 8 0 -1
BITMAP
000100
06E900
047100
4EFE20
BE7F50
AE8900
3DFE10
001000
ENDCHAR
STARTCHAR ecircumflex
ENCODING 234
SWIDTH 573 0
DWIDTH 5 0
BBX 5 8 0 -1
BITMAP
002000
2EFC00
055400
4EFE20
BE7F50
AE8900
3DFE10
001000
ENDCHAR
STARTCHAR edieresis
ENCODING 235
SWIDTH 573 0
DWIDTH 5 0
BBX 5 8 0 -1
BITMAP
120200
7E4F10
144400
4EFE20
BE7F50
AE8900
3DFE10
001000
ENDCHAR
STARTCHAR igrave
ENCODING 236
SWIDTH 255 0
DWIDTH 2 0
BBX 3 7 -1 0
BITMAP
0100
4FB0
0360
0AB0
0AB0
0AB0
09A0
ENDCHAR
STARTCHAR iacute
ENCODING 237
SWIDTH 255 0
DWIDTH 2 0
BBX 3 7 0 0
BITMAP
0100
AF60
5400
AB00
AB00
AB00
9A00
ENDCHAR
STARTCHAR icircumflex
ENCODING 238
SWIDTH 255 0
DWIDTH 2 0
BBX 4 7 -1 0
BITMAP
0110
6FF7
1432
0AB0
0AB0
0AB0
09A0
ENDCHAR
STARTCHAR idieresis
ENCODING 239
SWIDTH 255 0
DWIDTH 2 0
BBX 4 7 -1 0
BITMAP
1111
B99C
2332
0AB0
0AB0
0AB0
09A0
ENDCHAR
STARTCHAR eth
ENCODING 240
SWIDTH 585 0
DWIDTH 5 0
BBX 5 7 0 0
BITMAP
013000
09F200
068D00
3DFF50
AC5F70
AD6F50
2DFA00
ENDCHAR
STARTCHAR ntilde
ENCODING 241
SWIDTH 606 0
DWIDTH 5 0
BBX 5 7 0 0
BITMAP
011100
1EED00
134200
AEFD20
AD4E70
AB0D80
9A0C70
ENDCHAR
STARTCHAR ograve
ENCODING 242
SWIDTH 600 0
DWIDTH 5 0
BBX 5 7 0 0
BITMAP
010000
0BE500
028300
4EFD20
BC3E80
AD7E70
2CFB10
ENDCHAR
STARTCHAR oacute
ENCODING 243
SWIDTH 600 0
DWIDTH 5 0
BBX 5 7 0 0
BITMAP
000100
06EA00
048100
4EFD20
BC3E80
AD7E70
2CFB10
ENDCHAR
STARTCHAR ocircumflex
ENCODING 244
SWIDTH 600 0
DWIDTH 5 0
BBX 5 7 0 0
BITMAP
002000
1DFC00
055400
4EFD20
BC3E80
AD7E70
2CFB10
ENDCHAR
STARTCHAR otilde
ENCODING 245
SWIDTH 600 0
DWIDTH 5 0
BBX 5 7 0 0
BITMAP
011100
1EED00
036200
4EFD20
BC3E80
AD7E70
2CFB10
ENDCHAR
STARTCHAR odieresis
ENCODING 246
SWIDTH 600 0
DWIDTH 5 0
BBX 5 7 0 0
BITMAP
020200
6F4F20
144400
4EFD20
BC3E80
AD7E70
2CFB10
ENDCHAR
STARTCHAR divide
ENCODING 247
SWIDTH 503 0
DWIDTH 4 0
BBX 4 5 0 0
BITMAP
0330
0880
8CC9
4884
0890
ENDCHAR
STARTCHAR oslash
ENCODING 248
SWIDTH 600 0
DWIDTH 5 0
BBX 5 8 0 -2
BITMAP
000510
015F40
4EFF20
BC3E80
AD6E70
4FFB10
7D1000
020000
ENDCHAR
STARTCHAR ugrave
ENCODING 249
SWIDTH 606 0
DWIDTH 5 0
BBX 5 7 0 0
BITMAP
010000
0BE500
124410
AB0D80
AB0D80
9E8F80
2CDD70
ENDCHAR
STARTCHAR uacute
ENCODING 250
SWIDTH 606 0
DWIDTH 5 0
BBX 5 7 0 0
BITMAP
000100
04EC00
135210
AB0D80
AB0D80
9E8F80
2CDD70
ENDCHAR
STARTCHAR ucircumflex
ENCODING 251
SWIDTH 606 0
DWIDTH 5 0
BBX 5 7 0 0
BITMAP
002000
1DFD00
151510
AB0D80
AB0D80
9E8F80
2CDD70
ENDCHAR
STARTCHAR udieresis
ENCODING 252
SWIDTH 606 0
DWIDTH 5 0
BBX 5 7 0 0
BITMAP
020200
6F3F30
240510
AB0D80
AB0D80
9E8F80
2CDD70
ENDCHAR
STARTCHAR yacute
ENCODING 253
SWIDTH 604 0
DWIDTH 5 0
BBX 5 9 0 -2
BITMAP
000100
05EB00
234210
BB0C90
4F9F40
0AFC00
04F500
09D000
096000
ENDCHAR
STARTCHAR thorn
ENCODING 254
SWIDTH 580 0
DWIDTH 5 0
BBX 5 9 0 -2
BITMAP
220000
A90000
A92000
AFFC00
AD5F50
AE8F40
AEE900
A90000
760000
ENDCHAR
STARTCHAR ydieresis
ENCODING 255
SWIDTH 604 0
DWIDTH 5 0
BBX 5 9 0 -2
BITMAP
020200
4F3F40
240510
BB0C90
4F9F40
0AFC00
04F500
09D000
096000
ENDCHAR
STARTCHAR dotlessi
ENCODING 305
SWIDTH 255 0
DWIDTH 2 0
BBX 2 5 0 0
BITMAP
11
AB
AB
AB
9A
ENDCHAR
STARTCHAR Lslash
ENCODING 321
SWIDTH 687 0
DWIDTH 6 0
BBX 6 6 0 0
BITMAP
0A6000
0D8000
3EE900
8E9000
0D9330
0CFFF4
ENDCHAR
STARTCHAR lslash
ENCODING 322
SWIDTH 468 0
DWIDTH 4 0
BBX 4 7 0 0
BITMAP
0210
0E70
0E70
3EE8
9F80
0EA1
0AF3
ENDCHAR
STARTCHAR OE
ENCODING 338
SWIDTH 1092 0
DWIDTH 9 0
BBX 9 6 0 0
BITMAP
05BDDDDD60
4FB8FB8830
AB01FCA500
BB01FDC600
6F96FA6620
07DFFFFF70
ENDCHAR
STARTCHAR oe
ENCODING 339
SWIDTH 944 0
DWIDTH 8 0
BBX 8 6 0 -1
BITMAP
01411310
4EFEEFD1
BC3EE7F5
AD6EE880
2DFBCFD1
00100000
ENDCHAR
STARTCHAR Scaron
ENCODING 352
SWIDTH 583 0
DWIDTH 5 0
BBX 5 9 0 -1
BITMAP
2A8900
17A500
2CEA00
9D7A00
8F9500
06BF40
9A5F60
4EFB10
001000
ENDCHAR
STARTCHAR scaron
ENCODING 353
SWIDTH 489 0
DWIDTH 4 0
BBX 4 7 0 0
BITMAP
1110
9EF5
0760
8EE6
8E92
49DA
8FF6
ENDCHAR
STARTCHAR Ydieresis
ENCODING 376
SWIDTH 686 0
DWIDTH 5 0
BBX 6 8 0 0
BITMAP
0B3950
093840
9802D3
7F3AE1
0CDF50
03FA00
00F700
00E600
ENDCHAR
STARTCHAR Zcaron
ENCODING 381
SWIDTH 643 0
DWIDTH 5 0
BBX 5 8 0 0
BITMAP
0A8A10
06A700
9DDD90
58BF80
01DC00
0AE200
6FA640
AFFFD0
ENDCHAR
STARTCHAR zcaron
ENCODING 382
SWIDTH 586 0
DWIDTH 5 0
BBX 5 7 0 0
BITMAP
020100
1FED00
147400
9FFF40
16F900
4ED620
AFFF60
ENDCHAR
STARTCHAR florin
ENCODING 402
SWIDTH 529 0
DWIDTH 4 0
BBX 5 8 0 -2
BITMAP
009E10
05F600
4FFE10
2CD500
0AB000
0C9000
6E6000
B90000
ENDCHAR
STARTCHAR circumflex
ENCODING 710
SWIDTH 603 0
DWIDTH 5 0
BBX 4 3 0 4
BITMAP
0020
1DFC
0313
ENDCHAR
STARTCHAR caron
ENCODING 711
SWIDTH 600 0
DWIDTH 5 0
BBX 4 3 0 4
BITMAP
0201
1FED
0141
ENDCHAR
STARTCHAR dotaccent
ENCODING 729
SWIDTH 285 0
DWIDTH 2 0
BBX 2 2 0 5
BITMAP
7C
24
ENDCHAR
STARTCHAR ring
ENCODING 730
SWIDTH 378 0
DWIDTH 3 0
BBX 3 3 0 5
BITMAP
0500
7670
2930
ENDCHAR
STARTCHAR ogonek
ENCODING 731
SWIDTH 570 0
DWIDTH 5 0
BBX 2 3 1 -2
BITMAP
02
8A
26
ENDCHAR
STARTCHAR tilde
ENCODING 732
SWIDTH 584 0
DWIDTH 5 0
BBX 4 3 0 4
BITMAP
0101
3EEA
0131
ENDCHAR
STARTCHAR endash
ENCODING 8211
SWIDTH 561 0
DWIDTH 4 0
BBX 5 2 0 1
BITMAP
ADDD40
577720
ENDCHAR
STARTCHAR emdash
ENCODING 8212
SWIDTH 693 0
DWIDTH 6 0
BBX 6 2 0 1
BITMAP
ADDDD4
577772
ENDCHAR
STARTCHAR quoteleft
ENCODING 8216
SWIDTH 237 0
DWIDTH 2 0
BBX 2 3 0 3
BITMAP
37
B6
A8
ENDCHAR
STARTCHAR quoteright
ENCODING 8217
SWIDTH 237 0
DWIDTH 2 0
BBX 2 3 0 3
BITMAP
98
89
83
ENDCHAR
STARTCHAR quotesinglbase
ENCODING 8218
SWIDTH 237 0
DWIDTH 2 0
BBX 2 4 0 -2
BITMAP
54
BA
86
20
ENDCHAR
STARTCHAR quotedblleft
ENCODING 8220
SWIDTH 482 0
DWIDTH 4 0
BBX 4 3 0 3
BITMAP
3746
B6B6
A8A7
ENDCHAR
STARTCHAR quotedblright
ENCODING 8221
SWIDTH 482 0
DWIDTH 4 0
BBX 4 3 0 3
BITMAP
98A7
8998
8382
ENDCHAR
STARTCHAR quotedblbase
ENCODING 8222
SWIDTH 482 0
DWIDTH 4 0
BBX 4 4 0 -2
BITMAP
5453
BAB9
8685
2020
ENDCHAR
STARTCHAR dagger
ENCODING 8224
SWIDTH 527 0
DWIDTH 4 0
BBX 5 8 0 -2
BITMAP
08B000
19C100
CFFF10
1AC200
09C000
09C000
09C000
045000
ENDCHAR
STARTCHAR daggerdbl
ENCODING 8225
SWIDTH 527 0
DWIDTH 4 0
BBX 5 8 0 -2
BITMAP
08B000
19C100
CFFF10
1AC200
7CE900
7CE900
09C000
045000
ENDCHAR
STARTCHAR bullet
ENCODING 8226
SWIDTH 342 0
DWIDTH 3 0
BBX 3 3 0 1
BITMAP
5A20
BF70
4920
ENDCHAR
STARTCHAR ellipsis
ENCODING 8230
SWIDTH 911 0
DWIDTH 7 0
BBX 8 2 0 0
BITMAP
54062260
B91E55E1
ENDCHAR
STARTCHAR perthousand
ENCODING 8240
SWIDTH 1223 0
DWIDTH 10 0
BBX 10 8 0 -1
BITMAP
0000100000
4D80A10000
A5E4800000
6EBB100000
0158CD2CD2
00B5A89B86
0561DE3CE3
0100000000
ENDCHAR
STARTCHAR guilsinglleft
ENCODING 8249
SWIDTH 383 0
DWIDTH 3 0
BBX 3 5 0 0
BITMAP
0010
0AC0
9E30
7F60
07B0
ENDCHAR
STARTCHAR guilsinglright
ENCODING 8250
SWIDTH 383 0
DWIDTH 3 0
BBX 3 5 0 0
BITMAP
1000
BB10
3EA0
5F80
A800
ENDCHAR
STARTCHAR fraction
ENCODING 8260
SWIDTH 433 0
DWIDTH 3 0
BBX 5 8 0 -1
BITMAP
000200
000B10
006600
00B000
075000
1B0000
740000
100000
ENDCHAR
STARTCHAR Euro
ENCODING 8364
SWIDTH 612 0
DWIDTH 5 0
BBX 5 7 0 0
BITMAP
001210
07FFA0
2FB620
9FBA20
BFDC20
0EA630
05DF90
ENDCHAR
STARTCHAR trademark
ENCODING 8482
SWIDTH 840 0
DWIDTH 7 0
BBX 7 5 0 1
BITMAP
11100000
BFCB7C60
0E1BFF60
0E1B6960
01010000
ENDCHAR
STARTCHAR minus
ENCODING 8722
SWIDTH 581 0
DWIDTH 5 0
BBX 5 2 0 1
BITMAP
9DDD50
477720
ENDCHAR
STARTCHAR f_f
ENCODING 64256
SWIDTH 803 0
DWIDTH 6 0
BBX 7 7 0 0
BITMAP
00201200
0CF4DF10
3F87F600
DFFFFF40
4F67F400
2F45F100
2E34E100
ENDCHAR
STARTCHAR fi
ENCODING 64257
SWIDTH 709 0
DWIDTH 6 0
BBX 6 7 0 0
BITMAP
002020
0CF4F5
3F8151
CFF7F5
3F61F5
2F41F5
2F30E4
ENDCHAR
STARTCHAR fl
ENCODING 64258
SWIDTH 774 0
DWIDTH 6 0
BBX 7 7 0 0
BITMAP
00202000
0CF5F400
3F82F400
CFF8F400
3F62F400
2F41F800
2F30CF10
ENDCHAR
STARTCHAR f_f_i
ENCODING 64259
SWIDTH 1059 0
DWIDTH 8 0
BBX 9 7 0 0
BITMAP
0020120200
0CF4DF4F20
3F87F61500
DFFFFF7F20
4F67F44F20
2F45F14F20
2E34E13E20
ENDCHAR
STARTCHAR .notdef
ENCODING -1
SWIDTH 500 0
DWIDTH 4 0
BBX 1 1 0 0
BITMAP
00
ENDCHAR
STARTCHAR .null
ENCODING -1
SWIDTH 0 0
DWIDTH 0 0
BBX 1 1 0 0
BITMAP
00
ENDCHAR
STARTCHAR nonmarkingreturn
ENCODING -1
SWIDTH 333 0
DWIDTH 3 0
BBX 1 1 0 0
BITMAP
00
ENDCHAR
STARTCHAR f_t
ENCODING -1
SWIDTH 814 0
DWIDTH 7 0
BBX 7 7 0 0
BITMAP
00200000
0CF59100
3F86F500
DFFFFF50
4F65F500
2F43F700
2E30AF20
ENDCHAR
STARTCHAR t_t
ENCODING -1
SWIDTH 794 0
DWIDTH 6 0
BBX 7 6 0 0
BITMAP
19239000
4F68F300
DFFFFF30
4F68F300
2F86F500
0AF4CE00
ENDCHAR
STARTCHAR l_l
ENCODING -1
SWIDTH 626 0
DWIDTH 5 0
BBX 5 7 0 0
BITMAP
111200
AB8D00
AB8D00
AB8D00
AB8D00
AD8E40
5E6DC0
ENDCHAR
STARTCHAR j_j
ENCODING -1
SWIDTH 521 0
DWIDTH 4 0
BBX 5 9 -1 -2
BITMAP
011010
0AA7C0
033240
0AA8C0
0AB8D0
0AB8D0
0AA8D0
7E9CB0
C94C40
ENDCHAR
ENDFONT
